<?xml version="1.0" encoding="UTF-8"?>
<svg width="1440px" height="811px" viewBox="0 0 1440 811" version="1.1" xmlns="http://www.w3.org/2000/svg" xmlns:xlink="http://www.w3.org/1999/xlink">
    <!-- Generator: Sketch 51.3 (57544) - http://www.bohemiancoding.com/sketch -->
    <title>home</title>
    <desc>Created with Sketch.</desc>
    <defs></defs>
    <g id="home" stroke="none" stroke-width="1" fill="none" fill-rule="evenodd">
        <rect fill="#FFFFFF" x="0" y="0" width="1440" height="811"></rect>
        <path d="M1185.42555,5.68434189e-14 L0,798.633941 L0,0 L1185.42555,0 Z" id="Combined-Shape" fill="#2A00FF"></path>
        <g id="Group" transform="translate(526.672251, 74.632234)">
            <polygon id="Fill-1" fill="#EA5C5C" points="164.963316 259.838694 245.270543 111.672421 314.917868 123.272724 332.900765 144.851898"></polygon>
            <polygon id="Fill-2" fill="#EDE25A" points="272.193774 115.509409 141.710076 26.8568797 87.856941 58.3633529 172.062283 184.912533 272.193774 185.649686"></polygon>
            <polygon id="Fill-3" fill="#B5AF35" points="68.6654764 27.8464245 0.0616935004 109.353422 142.141144 26.8574865"></polygon>
            <polygon id="Fill-4" fill="#EDE25A" points="328.914678 0.412040154 253.037953 102.735273 272.275225 116.085936 314.702486 123.114676"></polygon>
            <polygon id="Fill-5" fill="#B5AF35" points="323.454284 46.8267539 371.857643 68.1010554 329.010235 0.660639757"></polygon>
            <polygon id="Fill-6" fill="#C94545" points="314.559757 123.352507 353.789654 128.947894 353.789654 170.343747"></polygon>
            <polygon id="Fill-7" fill="#2A00FF" points="166.102111 258.593117 102.505206 372.351325 223.105591 290.263402 212.51546 227.171584"></polygon>
            <polygon id="Fill-8" fill="#EA5C5C" points="353.661183 170.031898 333.400088 174.061972 345.135385 159.651082"></polygon>
            <path d="M445.452832,239.842883 L445.452832,233.968409 L438.540884,233.968409 L438.540884,223.592144 C438.540884,221.633986 439.258319,220.655665 439.582909,220.328042 C440.430787,219.414942 441.606288,219.2845 442.387428,219.2845 C443.300527,219.2845 444.149922,219.480164 445.452832,220.26282 L445.452832,213.931797 C444.0847,213.344804 442.713535,213.14914 441.345403,213.14914 C438.019113,213.14914 435.99725,214.585527 434.823265,215.82625 C433.257952,217.522006 432.149189,220.199116 432.149189,224.440022 L432.149189,233.968409 L429.409892,233.968409 L429.409892,239.842883 L432.149189,239.842883 L432.149189,261.447842 L438.540884,261.447842 L438.540884,239.842883 L445.452832,239.842883 Z M401.742379,261.447842 L408.134073,261.447842 L408.134073,248.262507 C408.134073,239.386333 411.069035,238.995005 413.938775,238.995005 C416.350449,238.995005 418.959304,239.190669 418.959304,246.173906 L418.959304,261.447842 L425.350999,261.447842 L425.350999,244.608593 C425.350999,240.366171 424.697268,238.473234 423.653726,236.971626 C422.807365,235.797641 420.65506,233.250974 415.567793,233.250974 C414.003997,233.250974 410.871854,233.448155 408.134073,236.515076 L408.134073,233.968409 L401.742379,233.968409 L401.742379,261.447842 Z M382.421685,256.551688 C387.445247,256.551688 390.574356,253.093439 390.574356,247.805957 C390.574356,241.541672 386.463893,238.995005 382.421685,238.995005 C378.37796,238.995005 374.269013,241.541672 374.269013,247.805957 C374.269013,253.093439 377.399639,256.551688 382.421685,256.551688 L382.421685,256.551688 Z M382.421685,233.250974 C390.704799,233.250974 397.096494,239.25589 397.096494,247.740736 C397.096494,256.16036 390.704799,262.295719 382.421685,262.295719 C374.138571,262.295719 367.748393,256.16036 367.748393,247.740736 C367.748393,239.25589 374.138571,233.250974 382.421685,233.250974 L382.421685,233.250974 Z M364.080828,220.26282 C360.296472,217.849629 356.451444,217.130678 352.471424,217.130678 C346.472574,217.130678 341.254865,218.565548 336.756107,222.809487 C333.10371,226.267737 329.775903,231.816104 329.775903,239.842883 C329.775903,245.978242 331.667323,251.525092 336.756107,256.290803 C339.298224,258.70551 344.255048,262.295719 352.145317,262.295719 C355.1455,262.295719 359.712513,261.643506 364.080828,259.031617 L364.080828,251.135281 C361.603933,253.484767 357.560208,256.16036 352.340981,256.16036 C343.081063,256.16036 336.428483,249.045163 336.428483,239.842883 C336.428483,230.250791 342.820178,223.266037 352.27576,223.266037 C354.754172,223.266037 359.254447,223.722586 364.080828,228.095452 L364.080828,220.26282 Z M324.28214,224.440022 C323.369041,222.612306 322.129835,221.112215 320.957367,220.067156 C319.587718,218.891655 316.912125,217.130678 312.216186,217.130678 C304.065032,217.130678 299.499536,222.744266 299.499536,228.617223 C299.499536,235.14391 304.782467,238.14561 308.368125,239.648735 L312.54381,241.409713 C315.41355,242.585214 318.803545,244.412929 318.803545,248.849499 C318.803545,253.223882 315.672919,256.16036 311.629194,256.16036 C309.023373,256.16036 307.195657,255.116818 305.956451,253.549988 C304.914426,252.18034 304.130253,250.15696 304.130253,248.001621 L297.542894,249.438008 C297.80378,252.439708 298.848839,255.312482 301.195291,257.922854 C303.412818,260.4043 306.413001,262.295719 311.435047,262.295719 C319.587718,262.295719 325.456125,256.61691 325.456125,248.329245 C325.456125,243.36787 323.238598,238.799341 315.219403,235.536755 L310.846537,233.774262 C306.608665,232.075472 306.152115,229.792724 306.152115,228.48678 C306.152115,225.680744 308.239199,223.266037 312.282924,223.266037 C314.174344,223.266037 315.609214,223.722586 316.978863,224.832867 C317.955667,225.680744 318.542659,226.593844 318.933988,227.573681 L324.28214,224.440022 Z M285.00674,217.913334 L285.00674,246.110202 C285.00674,250.548289 284.679116,252.112085 284.289305,253.093439 C283.180541,255.834253 281.028236,256.028401 279.919473,256.028401 C277.569987,256.028401 276.201855,255.182039 275.35246,254.463088 L272.092908,260.075159 C273.397336,260.924554 275.940969,262.295719 279.787513,262.295719 C285.722658,262.295719 288.65762,258.770732 290.027269,256.028401 C291.52736,253.026701 291.657803,249.568451 291.657803,246.110202 L291.657803,217.913334 L285.00674,217.913334 Z" id="Fill-9" fill="#000000"></path>
            <path d="M438.067498,291.028767 L443.59463,291.028767 L440.856849,284.494496 L438.067498,291.028767 Z M446.211069,297.343106 L444.304481,292.742724 L437.359163,292.742724 L435.402522,297.343106 L433.395827,297.343106 L440.903869,280.235389 L448.217763,297.343106 L446.211069,297.343106 Z M421.102357,297.343106 L422.913388,297.343106 L422.913388,281.018045 L421.102357,281.018045 L421.102357,297.343106 Z M401.766495,289.804729 L401.766495,295.630666 L403.845995,295.630666 C404.898638,295.630666 405.923979,295.556344 406.708152,294.945083 C407.342164,294.479433 407.782029,293.672508 407.782029,292.694188 C407.782029,291.397344 407.025158,290.637439 406.389629,290.296165 C405.778368,289.953373 404.919873,289.804729 403.624546,289.804729 L401.766495,289.804729 Z M401.766495,282.730485 L401.766495,288.189363 L403.137661,288.189363 C404.090196,288.189363 406.339575,287.995215 406.339575,285.472817 C406.339575,282.780539 403.698868,282.730485 403.186198,282.730485 L401.766495,282.730485 Z M399.956982,281.018045 L402.89346,281.018045 C403.797459,281.018045 405.435577,281.092367 406.63383,282.046419 C407.148017,282.437748 408.100552,283.441853 408.100552,285.42428 C408.100552,286.231205 407.930674,287.650907 406.488219,288.629228 C408.763384,289.193468 409.594577,291.175895 409.594577,292.742724 C409.594577,294.309554 408.810404,295.580612 407.930674,296.266195 C406.63383,297.294569 405.141322,297.343106 404.018908,297.343106 L399.956982,297.343106 L399.956982,281.018045 Z M371.963362,297.343106 L373.577212,285.987004 L379.055807,298.030206 L384.607207,285.987004 L386.148252,297.343106 L388.006303,297.343106 L385.462669,280.088261 L379.080075,293.892441 L372.818824,280.11253 L370.103794,297.343106 L371.963362,297.343106 Z M350.670859,282.463533 C347.003294,282.463533 344.042547,285.448548 344.042547,289.193468 C344.042547,292.936872 347.003294,295.924921 350.670859,295.924921 C354.33994,295.924921 357.297654,292.936872 357.297654,289.193468 C357.297654,285.448548 354.33994,282.463533 350.670859,282.463533 L350.670859,282.463533 Z M350.670859,297.635844 C345.950652,297.635844 342.184497,294.039568 342.184497,289.193468 C342.184497,284.3231 345.97492,280.749576 350.670859,280.749576 C355.365281,280.749576 359.157221,284.3231 359.157221,289.193468 C359.157221,294.039568 355.391066,297.635844 350.670859,297.635844 L350.670859,297.635844 Z M326.956065,281.018045 L326.956065,297.343106 L333.265853,297.343106 L333.265853,295.630666 L328.764062,295.630666 L328.764062,281.018045 L326.956065,281.018045 Z M306.960405,282.463533 C303.291324,282.463533 300.332094,285.448548 300.332094,289.193468 C300.332094,292.936872 303.291324,295.924921 306.960405,295.924921 C310.626453,295.924921 313.5872,292.936872 313.5872,289.193468 C313.5872,285.448548 310.626453,282.463533 306.960405,282.463533 L306.960405,282.463533 Z M306.960405,297.635844 C302.238681,297.635844 298.472526,294.039568 298.472526,289.193468 C298.472526,284.3231 302.264467,280.749576 306.960405,280.749576 C311.654827,280.749576 315.445251,284.3231 315.445251,289.193468 C315.445251,294.039568 311.679096,297.635844 306.960405,297.635844 L306.960405,297.635844 Z M287.84296,282.364942 C285.886318,280.872435 284.003999,280.749576 283.024162,280.749576 C278.134076,280.749576 274.489263,284.371637 274.489263,289.243522 C274.489263,293.966763 278.085539,297.635844 282.927088,297.635844 C284.14961,297.635844 286.033446,297.343106 287.84296,296.046263 L287.84296,293.795367 C287.550222,294.089622 286.888907,294.699366 285.96064,295.165016 C285.103662,295.606398 284.026751,295.924921 282.927088,295.924921 C279.94359,295.924921 276.34883,293.696777 276.34883,289.266274 C276.34883,285.498602 279.138181,282.463533 282.90282,282.463533 C283.856872,282.463533 284.859461,282.707734 285.716439,283.099062 C286.547633,283.49039 287.328772,284.103168 287.84296,284.615838 L287.84296,282.364942 Z" id="Fill-11" fill="#000000"></path>
        </g>
    </g>
</svg>