<?xml version="1.0" encoding="UTF-8"?>
<svg width="50px" height="25px" viewBox="0 0 50 25" version="1.1" xmlns="http://www.w3.org/2000/svg" xmlns:xlink="http://www.w3.org/1999/xlink">
    <!-- Generator: Sketch 51.3 (57544) - http://www.bohemiancoding.com/sketch -->
    <title>Group 2 Copy</title>
    <desc>Created with Sketch.</desc>
    <defs></defs>
    <g id="Page-1" stroke="none" stroke-width="1" fill="none" fill-rule="evenodd">
        <g id="home" transform="translate(-1136.000000, -667.000000)" fill="#FFFFFF">
            <g id="Group-2-Copy" transform="translate(1136.030200, 667.668461)">
                <path d="M48.5930465,7.66747436 L48.5930465,6.02808632 L46.6641306,6.02808632 L46.6641306,3.13238438 C46.6641306,2.5859217 46.8643451,2.312902 46.9549283,2.22147215 C47.1915454,1.96665376 47.5195923,1.93025114 47.7375848,1.93025114 C47.9924032,1.93025114 48.2294436,1.98485508 48.5930465,2.20327083 L48.5930465,0.436473596 C48.2112422,0.272661777 47.8285914,0.218057838 47.4467871,0.218057838 C46.5185201,0.218057838 45.9542794,0.618910014 45.6266558,0.965158251 C45.1898243,1.43839239 44.8804019,2.18549281 44.8804019,3.36900145 L44.8804019,6.02808632 L44.1159468,6.02808632 L44.1159468,7.66747436 L44.8804019,7.66747436 L44.8804019,13.6967652 L46.6641306,13.6967652 L46.6641306,7.66747436 L48.5930465,7.66747436 Z M36.3947804,13.6967652 L38.1785091,13.6967652 L38.1785091,10.0171369 C38.1785091,7.54006517 38.9975682,7.43085729 39.798426,7.43085729 C40.4714513,7.43085729 41.1995038,7.48546123 41.1995038,9.4342716 L41.1995038,13.6967652 L42.9832325,13.6967652 L42.9832325,8.99744008 C42.9832325,7.81350816 42.8007961,7.28524679 42.5095751,6.8661933 C42.2733813,6.53856966 41.6727379,5.82787187 40.2530355,5.82787187 C39.8166273,5.82787187 38.942541,5.8828991 38.1785091,6.73878411 L38.1785091,6.02808632 L36.3947804,6.02808632 L36.3947804,13.6967652 Z M31.0029588,12.3303968 C32.4048832,12.3303968 33.278123,11.3653039 33.278123,9.88972772 C33.278123,8.14155508 32.131017,7.43085729 31.0029588,7.43085729 C29.8744774,7.43085729 28.7277947,8.14155508 28.7277947,9.88972772 C28.7277947,11.3653039 29.6014577,12.3303968 31.0029588,12.3303968 L31.0029588,12.3303968 Z M31.0029588,5.82787187 C33.3145256,5.82787187 35.0982543,7.50366255 35.0982543,9.8715264 C35.0982543,12.2211889 33.3145256,13.9333822 31.0029588,13.9333822 C28.6913921,13.9333822 26.9080867,12.2211889 26.9080867,9.8715264 C26.9080867,7.50366255 28.6913921,5.82787187 31.0029588,5.82787187 L31.0029588,5.82787187 Z M25.8845803,2.20327083 C24.8284808,1.52982225 23.7554499,1.32918451 22.6447465,1.32918451 C20.970649,1.32918451 19.5145439,1.7296134 18.2590766,2.91396862 C17.2398031,3.8790615 16.3111128,5.42744298 16.3111128,7.66747436 C16.3111128,9.37966766 16.8389509,10.9276259 18.2590766,12.2575916 C18.9685045,12.9314634 20.3518043,13.9333822 22.55374,13.9333822 C23.3910004,13.9333822 24.6655156,13.7513691 25.8845803,13.02247 L25.8845803,10.8188413 C25.1933537,11.4745118 24.0648722,12.2211889 22.6083439,12.2211889 C20.0241807,12.2211889 18.1676468,10.2355527 18.1676468,7.66747436 C18.1676468,4.99061147 19.9513755,3.04137781 22.5901426,3.04137781 C23.2817925,3.04137781 24.5376831,3.168787 25.8845803,4.38912156 L25.8845803,2.20327083 Z M14.7779697,3.36900145 C14.5231513,2.85894139 14.1773263,2.44031119 13.850126,2.14866689 C13.4678984,1.82061997 12.7212213,1.32918451 11.4107267,1.32918451 C9.13598585,1.32918451 7.86189393,2.89576731 7.86189393,4.53473207 C7.86189393,6.35613324 9.3362003,7.19381693 10.3368492,7.61329371 L11.5021566,8.10472917 C12.3030143,8.43277609 13.2490593,8.94283615 13.2490593,10.1809487 C13.2490593,11.4017066 12.3753963,12.2211889 11.2469149,12.2211889 C10.5197089,12.2211889 10.0096489,11.9299679 9.66382394,11.4927131 C9.37302621,11.1104856 9.15418717,10.5458216 9.15418717,9.94433166 L7.31585454,10.3451838 C7.38865979,11.1828675 7.68030409,11.9845719 8.33512807,12.7130477 C8.95397272,13.4055442 9.79123313,13.9333822 11.1927342,13.9333822 C13.4678984,13.9333822 15.1055933,12.3485981 15.1055933,10.0357615 C15.1055933,8.65119185 14.4867486,7.37625335 12.2488337,6.46576441 L11.0284991,5.97390567 C9.84583707,5.49982495 9.71842788,4.86277899 9.71842788,4.49832944 C9.71842788,3.71524969 10.3008699,3.04137781 11.4293513,3.04137781 C11.9571894,3.04137781 12.3576183,3.168787 12.7398459,3.47863261 C13.0124423,3.71524969 13.1762541,3.97006807 13.285462,4.24351105 L14.7779697,3.36900145 Z M3.81739283,1.54760027 L3.81739283,9.41649357 C3.81739283,10.6550294 3.72596298,11.0914377 3.61717838,11.3653039 C3.30775606,12.1301824 2.70711273,12.184363 2.3976904,12.184363 C1.74201984,12.184363 1.36021555,11.9481693 1.12317519,11.7475315 L0.21353282,13.313691 C0.577559083,13.5507314 1.2874103,13.9333822 2.36086449,13.9333822 C4.01718399,13.9333822 4.83624308,12.9496648 5.21847066,12.184363 C5.63710086,11.3466793 5.67350349,10.3815865 5.67350349,9.41649357 L5.67350349,1.54760027 L3.81739283,1.54760027 Z" id="Fill-9"></path>
                <path d="M46.532023,21.9519073 L48.0744784,21.9519073 L47.3104466,20.1283897 L46.532023,21.9519073 Z M48.8046474,23.7140484 L48.2725764,22.4302209 L46.3343482,22.4302209 L45.7883088,23.7140484 L45.228301,23.7140484 L47.3235684,18.9398016 L49.3646552,23.7140484 L48.8046474,23.7140484 Z M41.7975651,23.7140484 L42.302969,23.7140484 L42.302969,19.1582173 L41.7975651,19.1582173 L41.7975651,23.7140484 Z M36.4015107,21.6103152 L36.4015107,23.2361581 L36.9818363,23.2361581 C37.275597,23.2361581 37.5617386,23.215417 37.7805776,23.0448326 C37.9575113,22.9148837 38.0802643,22.6896954 38.0802643,22.4166757 C38.0802643,22.0547659 37.8690445,21.8426994 37.6916875,21.74746 C37.5211031,21.6517973 37.281523,21.6103152 36.9200364,21.6103152 L36.4015107,21.6103152 Z M36.4015107,19.6361076 L36.4015107,21.1595152 L36.7841615,21.1595152 C37.0499854,21.1595152 37.677719,21.1053346 37.677719,20.4014094 C37.677719,19.6500761 36.9407775,19.6361076 36.7977067,19.6361076 L36.4015107,19.6361076 Z M35.89653,19.1582173 L36.7160124,19.1582173 C36.9682911,19.1582173 37.4254404,19.1789584 37.7598366,19.4452055 C37.9033306,19.5544134 38.1691545,19.8346289 38.1691545,20.3878642 C38.1691545,20.6130525 38.1217464,21.0092486 37.7192011,21.2822683 C38.3541306,21.4397308 38.5860915,21.9929661 38.5860915,22.4302209 C38.5860915,22.8674757 38.3672525,23.2221896 38.1217464,23.4135151 C37.7598366,23.7005032 37.3433228,23.7140484 37.0300909,23.7140484 L35.89653,23.7140484 L35.89653,19.1582173 Z M28.0843571,23.7140484 L28.5347338,20.5449034 L30.0636441,23.9057971 L31.6128722,20.5449034 L32.0429311,23.7140484 L32.5614569,23.7140484 L31.8516057,18.8987428 L30.0704167,22.7510719 L28.3230906,18.9055154 L27.565408,23.7140484 L28.0843571,23.7140484 Z M22.1422633,19.5616092 C21.1187569,19.5616092 20.2925019,20.3946368 20.2925019,21.4397308 C20.2925019,22.4844015 21.1187569,23.3182756 22.1422633,23.3182756 C23.166193,23.3182756 23.9916014,22.4844015 23.9916014,21.4397308 C23.9916014,20.3946368 23.166193,19.5616092 22.1422633,19.5616092 L22.1422633,19.5616092 Z M22.1422633,23.7957426 C20.8249962,23.7957426 19.7739761,22.7921307 19.7739761,21.4397308 C19.7739761,20.0805583 20.8317687,19.0832957 22.1422633,19.0832957 C23.4523346,19.0832957 24.5105504,20.0805583 24.5105504,21.4397308 C24.5105504,22.7921307 23.4595304,23.7957426 22.1422633,23.7957426 L22.1422633,23.7957426 Z M15.5241812,19.1582173 L15.5241812,23.7140484 L17.2850524,23.7140484 L17.2850524,23.2361581 L16.0287385,23.2361581 L16.0287385,19.1582173 L15.5241812,19.1582173 Z M9.94399717,19.5616092 C8.92006749,19.5616092 8.09423581,20.3946368 8.09423581,21.4397308 C8.09423581,22.4844015 8.92006749,23.3182756 9.94399717,23.3182756 C10.9670803,23.3182756 11.7933352,22.4844015 11.7933352,21.4397308 C11.7933352,20.3946368 10.9670803,19.5616092 9.94399717,19.5616092 L9.94399717,19.5616092 Z M9.94399717,23.7957426 C8.62630676,23.7957426 7.57528674,22.7921307 7.57528674,21.4397308 C7.57528674,20.0805583 8.63350262,19.0832957 9.94399717,19.0832957 C11.2540684,19.0832957 12.311861,20.0805583 12.311861,21.4397308 C12.311861,22.7921307 11.260841,23.7957426 9.94399717,23.7957426 L9.94399717,23.7957426 Z M4.60889598,19.5340956 C4.06285659,19.1175819 3.53755822,19.0832957 3.26411524,19.0832957 C1.89944004,19.0832957 0.882282929,20.0941035 0.882282929,21.4536992 C0.882282929,22.7718129 1.88589487,23.7957426 3.23702491,23.7957426 C3.57819371,23.7957426 4.10391536,23.7140484 4.60889598,23.3521385 L4.60889598,22.7239816 C4.52720171,22.8060991 4.34264886,22.9762602 4.08359762,23.1062092 C3.84444083,23.2293855 3.54390752,23.3182756 3.23702491,23.3182756 C2.40442065,23.3182756 1.401232,22.696468 1.401232,21.4600485 C1.401232,20.4086052 2.1796556,19.5616092 3.23025233,19.5616092 C3.49649944,19.5616092 3.77629172,19.6297583 4.01544851,19.7389662 C4.24740943,19.8481741 4.46540191,20.0191818 4.60889598,20.1622526 L4.60889598,19.5340956 Z" id="Fill-11"></path>
            </g>
        </g>
    </g>
</svg>