<?xml version="1.0" encoding="UTF-8"?>
<svg width="177px" height="86px" viewBox="0 0 177 86" version="1.1" xmlns="http://www.w3.org/2000/svg" xmlns:xlink="http://www.w3.org/1999/xlink">
    <!-- Generator: Sketch 51.3 (57544) - http://www.bohemiancoding.com/sketch -->
    <title>Group 2</title>
    <desc>Created with Sketch.</desc>
    <defs></defs>
    <g id="Page-1" stroke="none" stroke-width="1" fill="none" fill-rule="evenodd">
        <g id="home" transform="translate(-1114.000000, -592.000000)" fill="#000000">
            <g id="Group-2" transform="translate(1113.415641, 591.524081)">
                <path d="M174.125083,27.4751165 L174.125083,21.6006426 L167.213135,21.6006426 L167.213135,11.2243774 C167.213135,9.26621941 167.93057,8.28789883 168.25516,7.96027519 C169.103038,7.04717598 170.278539,6.91673324 171.059679,6.91673324 C171.972778,6.91673324 172.822173,7.11239735 174.125083,7.89505382 L174.125083,1.56403039 C172.756951,0.977038036 171.385786,0.781373919 170.017654,0.781373919 C166.691364,0.781373919 164.669501,2.21776088 163.495517,3.45848373 C161.930204,5.15423941 160.82144,7.83134922 160.82144,12.0722552 L160.82144,21.6006426 L158.082143,21.6006426 L158.082143,27.4751165 L160.82144,27.4751165 L160.82144,49.0800752 L167.213135,49.0800752 L167.213135,27.4751165 L174.125083,27.4751165 Z M130.41463,49.0800752 L136.806324,49.0800752 L136.806324,35.8947406 C136.806324,27.0185669 139.741286,26.6272386 142.611026,26.6272386 C145.0227,26.6272386 147.631555,26.8229027 147.631555,33.8061399 L147.631555,49.0800752 L154.02325,49.0800752 L154.02325,32.240827 C154.02325,27.9984042 153.369519,26.1054677 152.325977,24.6038593 C151.479616,23.4298746 149.327311,20.8832075 144.240044,20.8832075 C142.676248,20.8832075 139.544105,21.0803884 136.806324,24.1473097 L136.806324,21.6006426 L130.41463,21.6006426 L130.41463,49.0800752 Z M111.093936,44.183922 C116.117498,44.183922 119.246607,40.7256725 119.246607,35.438191 C119.246607,29.1739057 115.136144,26.6272386 111.093936,26.6272386 C107.050211,26.6272386 102.941264,29.1739057 102.941264,35.438191 C102.941264,40.7256725 106.07189,44.183922 111.093936,44.183922 L111.093936,44.183922 Z M111.093936,20.8832075 C119.37705,20.8832075 125.768745,26.8881241 125.768745,35.3729696 C125.768745,43.7925937 119.37705,49.9279531 111.093936,49.9279531 C102.810822,49.9279531 96.4206439,43.7925937 96.4206439,35.3729696 C96.4206439,26.8881241 102.810822,20.8832075 111.093936,20.8832075 L111.093936,20.8832075 Z M92.7530793,7.89505382 C88.9687229,5.48186305 85.1236955,4.76291118 81.143675,4.76291118 C75.1448256,4.76291118 69.9271158,6.19778137 65.4283579,10.4417209 C61.775961,13.8999704 58.4481543,19.4483374 58.4481543,27.4751165 C58.4481543,33.6104758 60.3395741,39.157326 65.4283579,43.9230365 C67.9704746,46.337744 72.9272989,49.9279531 80.8175682,49.9279531 C83.8177513,49.9279531 88.3847641,49.2757393 92.7530793,46.6638509 L92.7530793,38.7675145 C90.2761839,41.1170007 86.2324588,43.7925937 81.0132323,43.7925937 C71.7533142,43.7925937 65.1007343,36.6773971 65.1007343,27.4751165 C65.1007343,17.8830244 71.4924287,10.8982705 80.9480109,10.8982705 C83.4264231,10.8982705 87.9266978,11.3548201 92.7530793,15.7276856 L92.7530793,7.89505382 Z M52.9543913,12.0722552 C52.041292,10.24454 50.802086,8.74444843 49.629618,7.6993897 C48.2599692,6.52388823 45.5843762,4.76291118 40.8884374,4.76291118 C32.7372826,4.76291118 28.1717866,10.3764995 28.1717866,16.2494566 C28.1717866,22.7761441 33.4547177,25.777844 37.0403764,27.2809691 L41.216061,29.0419462 C44.0858014,30.2174477 47.475796,32.0451629 47.475796,36.4817329 C47.475796,40.8561152 44.3451701,43.7925937 40.301445,43.7925937 C37.6956237,43.7925937 35.8679085,42.7490518 34.6287024,41.1822221 C33.5866773,39.8125733 32.802504,37.7891939 32.802504,35.6338551 L26.2151454,37.0702421 C26.4760309,40.071942 27.5210896,42.9447159 29.8675423,45.5550876 C32.0850689,48.0365333 35.085252,49.9279531 40.1072977,49.9279531 C48.2599692,49.9279531 54.128376,44.2491433 54.128376,35.9614787 C54.128376,31.0001041 51.9108493,26.4315745 43.8916541,23.1689891 L39.5187886,21.4064953 C35.2809162,19.7077061 34.8243666,17.424958 34.8243666,16.1190138 C34.8243666,13.312978 36.9114505,10.8982705 40.9551755,10.8982705 C42.8465953,10.8982705 44.2814655,11.3548201 45.6511143,12.4651002 C46.6279182,13.312978 47.2149105,14.2260773 47.6062387,15.2059146 L52.9543913,12.0722552 Z M13.678991,5.54556764 L13.678991,33.7424353 C13.678991,38.1805222 13.3513673,39.7443183 12.9615559,40.7256725 C11.8527925,43.4664869 9.70048727,43.6606342 8.59172394,43.6606342 C6.24223776,43.6606342 4.87410572,42.8142732 4.02471111,42.0953213 L0.765159271,47.7073928 C2.06958672,48.5567875 4.61322023,49.9279531 8.45976442,49.9279531 C14.3949093,49.9279531 17.329871,46.4029654 18.6995199,43.6606342 C20.1996114,40.6589343 20.3300542,37.2006848 20.3300542,33.7424353 L20.3300542,5.54556764 L13.678991,5.54556764 Z" id="Fill-9"></path>
                <path d="M166.739749,78.6610011 L172.266881,78.6610011 L169.5291,72.1267296 L166.739749,78.6610011 Z M174.88332,84.97534 L172.976732,80.3749581 L166.031414,80.3749581 L164.074773,84.97534 L162.068079,84.97534 L169.57612,67.8676224 L176.890015,84.97534 L174.88332,84.97534 Z M149.774608,84.97534 L151.585639,84.97534 L151.585639,68.6502788 L149.774608,68.6502788 L149.774608,84.97534 Z M130.438747,77.4369628 L130.438747,83.2628997 L132.518247,83.2628997 C133.570889,83.2628997 134.59623,83.1885777 135.380403,82.577317 C136.014415,82.1116667 136.454281,81.3047418 136.454281,80.3264212 C136.454281,79.0295777 135.697409,78.2696728 135.06188,77.9283982 C134.450619,77.5856068 133.592124,77.4369628 132.296797,77.4369628 L130.438747,77.4369628 Z M130.438747,70.362719 L130.438747,75.8215962 L131.809912,75.8215962 C132.762448,75.8215962 135.011826,75.6274489 135.011826,73.1050502 C135.011826,70.4127726 132.371119,70.362719 131.858449,70.362719 L130.438747,70.362719 Z M128.629233,68.6502788 L131.565711,68.6502788 C132.46971,68.6502788 134.107828,68.7246008 135.306081,69.678653 C135.820268,70.0699812 136.772804,71.074087 136.772804,73.0565134 C136.772804,73.8634383 136.602925,75.2831407 135.160471,76.2614613 C137.435635,76.825702 138.266828,78.8081283 138.266828,80.3749581 C138.266828,81.9417878 137.482655,83.2128461 136.602925,83.8984289 C135.306081,84.9268031 133.813573,84.97534 132.691159,84.97534 L128.629233,84.97534 L128.629233,68.6502788 Z M100.635613,84.97534 L102.249463,73.6192373 L107.728058,85.6624395 L113.279459,73.6192373 L114.820503,84.97534 L116.678554,84.97534 L114.13492,67.7204951 L107.752326,81.5246743 L101.491075,67.7447635 L98.7760455,84.97534 L100.635613,84.97534 Z M79.3431101,70.0957664 C75.6755455,70.0957664 72.7147986,73.0807818 72.7147986,76.825702 C72.7147986,80.5691054 75.6755455,83.5571543 79.3431101,83.5571543 C83.0121915,83.5571543 85.9699049,80.5691054 85.9699049,76.825702 C85.9699049,73.0807818 83.0121915,70.0957664 79.3431101,70.0957664 L79.3431101,70.0957664 Z M79.3431101,85.2680778 C74.6229029,85.2680778 70.8567479,81.6718016 70.8567479,76.825702 C70.8567479,71.9553339 74.6471713,68.3818094 79.3431101,68.3818094 C84.0375322,68.3818094 87.8294724,71.9553339 87.8294724,76.825702 C87.8294724,81.6718016 84.0633174,85.2680778 79.3431101,85.2680778 L79.3431101,85.2680778 Z M55.6283158,68.6502788 L55.6283158,84.97534 L61.9381044,84.97534 L61.9381044,83.2628997 L57.4363129,83.2628997 L57.4363129,68.6502788 L55.6283158,68.6502788 Z M35.6326565,70.0957664 C31.9635752,70.0957664 29.004345,73.0807818 29.004345,76.825702 C29.004345,80.5691054 31.9635752,83.5571543 35.6326565,83.5571543 C39.2987044,83.5571543 42.2594513,80.5691054 42.2594513,76.825702 C42.2594513,73.0807818 39.2987044,70.0957664 35.6326565,70.0957664 L35.6326565,70.0957664 Z M35.6326565,85.2680778 C30.9109325,85.2680778 27.1447775,81.6718016 27.1447775,76.825702 C27.1447775,71.9553339 30.9367177,68.3818094 35.6326565,68.3818094 C40.3270786,68.3818094 44.117502,71.9553339 44.117502,76.825702 C44.117502,81.6718016 40.351347,85.2680778 35.6326565,85.2680778 L35.6326565,85.2680778 Z M16.5152106,69.997176 C14.5585694,68.5046683 12.6762503,68.3818094 11.6964129,68.3818094 C6.80632679,68.3818094 3.16151383,72.0038708 3.16151383,76.8757556 C3.16151383,81.5989964 6.75778996,85.2680778 11.5993393,85.2680778 C12.8218608,85.2680778 14.7056967,84.97534 16.5152106,83.6784964 L16.5152106,81.4276007 C16.2224728,81.7218552 15.5611584,82.3315992 14.6328915,82.7972495 C13.775913,83.2386313 12.6990019,83.5571543 11.5993393,83.5571543 C8.61584068,83.5571543 5.02108132,81.3290102 5.02108132,76.8985072 C5.02108132,73.1308354 7.81043257,70.0957664 11.5750708,70.0957664 C12.529123,70.0957664 13.531712,70.3399674 14.3886905,70.7312956 C15.2198838,71.1226239 16.0010235,71.7354014 16.5152106,72.2480717 L16.5152106,69.997176 Z" id="Fill-11"></path>
            </g>
        </g>
    </g>
</svg>