<?xml version="1.0" encoding="UTF-8"?>
<svg width="137px" height="138px" viewBox="0 0 137 138" version="1.1" xmlns="http://www.w3.org/2000/svg" xmlns:xlink="http://www.w3.org/1999/xlink">
    <!-- Generator: Sketch 51.3 (57544) - http://www.bohemiancoding.com/sketch -->
    <title>Group 9</title>
    <desc>Created with Sketch.</desc>
    <defs></defs>
    <g id="Page-1" stroke="none" stroke-width="1" fill="none" fill-rule="evenodd">
        <g id="Group-9" transform="translate(-0.003907, 0.150652)" fill="#FFFFFF">
            <path d="M101.415396,67.7703283 L122.743718,53.1665311 L116.576063,45.764806 L101.415396,43.2394672 L101.415396,67.7703283 Z M61.9391698,94.7990086 L98.8290825,69.5413031 L75.7216923,69.3707888 L61.9391698,94.7990086 Z" id="Fill-1"></path>
            <polygon id="Fill-2" points="31.5693799 20.6358497 62.9812498 67.8429588 99.9812414 68.115458 99.9812414 42.5264367 51.0161079 9.25887435"></polygon>
            <polygon id="Fill-3" points="23.5859096 9.50056223 0.340381144 37.1179486 48.4820815 9.16546919"></polygon>
            <polygon id="Fill-4" points="94.4260355 37.1185422 101.005407 41.6857363 116.248633 44.2105355 121.262078 0.928493715"></polygon>
            <polygon id="Fill-5" points="120.980459 15.5681745 136.754654 22.5015247 122.790825 0.522442968"></polygon>
            <polygon id="Fill-6" points="131.031308 61.0354438 131.031308 47.8826372 118.567574 46.1051872"></polygon>
            <polygon id="Fill-7" points="60.869624 97.094369 38.2349255 137.58181 81.2352948 108.313241 77.4667122 85.8582298"></polygon>
            <polygon id="Fill-8" points="125.803371 63.336416 130.385674 62.4250277 128.457675 60.077218"></polygon>
        </g>
    </g>
</svg>